<svg xmlns="http://www.w3.org/2000/svg" id="Layer_1" data-name="Layer 1" viewBox="0 0 1012.21 182.1"><defs><style>      .cls-1, .cls-2 {        letter-spacing: .1em;      }      .cls-1, .cls-3, .cls-4, .cls-5, .cls-6 {        fill: #1b1717;      }      .cls-2, .cls-7, .cls-8 {        fill: #4905a0;      }      .cls-3 {        letter-spacing: .07em;      }      .cls-9 {        font-family: RawengulkSans, RawengulkSans;        font-size: 42.26px;      }      .cls-5 {        letter-spacing: .1em;      }      .cls-6 {        letter-spacing: .07em;      }      .cls-7 {        letter-spacing: .09em;      }    </style></defs><path class="cls-4" d="M527.14,4.04v-1.4c-2.46-.12-4.51-.18-6.14-.18s-2.9-.02-3.77-.09c-.88-.06-3.01-.09-6.41-.09h-14.22c-4.8,0-9.01,.91-12.63,2.72-3.63,1.82-6.32,3.83-8.07,6.06-1.76,2.22-3.19,4.88-4.3,7.98s-1.76,5.32-1.93,6.67c-.18,1.35-.32,2.61-.44,3.78V118.11c0,5.03,.53,8.98,1.58,11.85,1.05,2.87,2.54,4.8,4.48,5.79,1.93,1,3.89,1.7,5.88,2.11,1.99,.41,4.24,1.02,6.76,1.84,2.51,.82,4.59,2.1,6.23,3.86V65.64c0-1.52,4.68-2.28,14.04-2.28,3.39,0,6.2-.79,8.42-2.36,2.22-1.58,3.74-3.34,4.56-5.27,.82-1.93,1.37-4.18,1.67-6.76,.29-2.57,.41-4.36,.35-5.35-.06-.99-.15-1.78-.26-2.37l-28.78-.53c.12-2.69,.2-4.85,.26-6.49,.06-1.64,.41-3.08,1.05-4.3s1.17-2.1,1.58-2.63c.41-.53,1.43-.9,3.07-1.14,1.64-.23,3.04-.32,4.21-.26,1.17,.06,3.27,.12,6.32,.17,3.04,.06,5.73,.09,8.08,.09,1.75,0,3.24-.35,4.48-1.05,1.23-.7,2.13-1.72,2.72-3.07,.58-1.34,1.05-2.66,1.4-3.95,.35-1.29,.5-2.92,.44-4.91-.06-1.99-.12-3.53-.18-4.65-.06-1.11-.21-2.6-.44-4.47Z"></path><path class="cls-4" d="M562.3,3.16c-2.4,0-5.32-.15-8.77-.44-3.45-.29-6.23-1.2-8.34-2.72V136.89c8.54,.46,15.12-.38,19.74-2.54,4.62-2.17,6.82-6.76,6.58-13.78V19.31c0-5.73-.94-9.86-2.81-12.37-1.87-2.51-4.01-3.78-6.41-3.78Z"></path><g><path class="cls-4" d="M608.77,40.89c-2.4,0-5.33-.15-8.78-.44-3.45-.29-6.23-1.2-8.34-2.72v99.16c8.54,.46,15.12-.38,19.75-2.54,4.62-2.17,6.81-6.76,6.58-13.78V57.04c0-5.73-.94-9.85-2.81-12.37-1.87-2.51-4.01-3.77-6.4-3.77Z"></path><path class="cls-8" d="M603,5.44c-3.86,0-7.17,1.38-9.91,4.12s-4.12,6.05-4.12,9.92,1.34,7.2,4.04,10c2.81,2.69,6.14,4.03,10,4.03s7.17-1.37,9.92-4.12,4.12-6.05,4.12-9.91-1.38-7.17-4.12-9.92c-2.75-2.75-6.06-4.12-9.92-4.12Z"></path></g><path class="cls-4" d="M727.03,126.01V53.53c0-3.16-1-5.41-2.98-6.75-1.99-1.34-5.38-2.66-10.18-3.95-20.01-3.51-35.51-3.86-46.51-1.05-21.29,5.27-31.94,21-31.94,47.21,0,6.78,.82,12.81,2.46,18.07,1.64,5.27,3.74,9.56,6.32,12.9,2.57,3.33,5.85,6.14,9.83,8.42,3.98,2.28,7.87,3.92,11.67,4.91,3.8,1,8.22,1.67,13.25,2.02,5.03,.35,9.45,.41,13.25,.18,3.8-.24,8.1-.59,12.9-1.05,2.34,4.56,.88,8.22-4.39,10.97-5.26,2.75-12.81,4.12-22.64,4.12-1.4-.12-3.39-.29-5.97-.53-12.17-1.17-19.74-.9-22.73,.79-2.98,1.69-4.48,7.51-4.48,17.46,.11,.12,.26,.32,.44,.61,.18,.29,.94,.76,2.28,1.4,1.34,.64,3.1,1.23,5.27,1.76,2.16,.53,5.44,1,9.83,1.41,4.39,.41,9.5,.61,15.35,.61,6.43,0,12.49-.56,18.16-1.67,5.67-1.11,11-2.84,15.97-5.18,4.97-2.34,8.89-5.35,11.76-9.04,2.87-3.68,4.74-8.08,5.62-13.16,.88-5.09,.09-10.97-2.37-17.64,0-.12-.06-.23-.17-.35Zm-25.98-15.62c-6.44,.82-11.82,1.35-16.15,1.58-4.33,.24-7.93-.15-10.79-1.14-2.87-.99-5.06-1.99-6.58-2.98-1.52-.99-2.63-2.98-3.33-5.97-.7-2.98-1.11-5.53-1.23-7.64-.12-2.1-.17-5.67-.17-10.71,0-2.92,.32-5.5,.96-7.72,.64-2.22,1.43-4.03,2.37-5.44,.94-1.4,2.28-2.57,4.04-3.51,1.76-.93,3.36-1.63,4.83-2.1,1.46-.47,3.42-.79,5.88-.97,2.46-.17,4.48-.23,6.05-.17s3.77,.12,6.58,.17c2.81,.06,4.97,.09,6.49,.09h1.05v46.51Z"></path><path class="cls-4" d="M834.31,60.11c-1.11-3.68-2.72-6.96-4.83-9.83-2.11-2.87-5.5-5.41-10.18-7.64-4.68-2.22-10.3-3.34-16.85-3.34-13.46,0-23.05,1.17-28.78,3.51V19.31c0-5.73-.94-9.86-2.81-12.37-1.87-2.51-4.01-3.78-6.41-3.78s-5.32-.15-8.77-.44c-3.45-.29-6.23-1.2-8.34-2.72V136.89c8.54,.46,15.12-.38,19.74-2.54,4.62-2.17,6.82-6.76,6.58-13.78v-54.05c5.73-2.11,11.46-3.16,17.2-3.16,9.24,.24,14.74,2.26,16.5,6.06,1.75,3.8,2.57,14.42,2.46,31.85v19.31c0,13.22,8.77,18.66,26.32,16.32v-63.88c.12-1.29,.12-2.84,0-4.65-.12-1.81-.73-4.56-1.84-8.25Z"></path><path class="cls-4" d="M880.01,15.27c-4.1-.23-7.61-.2-10.53,.09-2.93,.29-5.68,.96-8.25,2.02-2.57,1.05-4.5,2.78-5.79,5.18-1.29,2.4-1.87,5.41-1.76,9.04V107.05c0,5.97,1.4,11.29,4.21,15.97,2.81,4.68,6.46,8.25,10.97,10.71,4.5,2.46,9.65,4.06,15.44,4.83,5.79,.76,11.73,.2,17.81-1.67,2.81-1.4,4.8-4.27,5.97-8.6,1.17-4.33,.94-9.07-.7-14.22-.82,0-2.49,.17-5,.53-2.52,.35-4.97,.61-7.37,.79-2.4,.17-4.8,.12-7.2-.17-2.4-.29-4.3-1.29-5.7-2.98-1.4-1.7-2.05-4.12-1.93-7.29l-.18-40.54c2.34-.12,4.92-.17,7.72-.17,3.16,0,6.02-.44,8.6-1.32,2.57-.88,4.62-1.96,6.14-3.25,1.52-1.29,2.83-2.83,3.95-4.65,1.11-1.81,1.9-3.48,2.37-5,.47-1.52,.82-3.1,1.05-4.74,.23-1.63,.35-2.72,.35-3.24v-1.32h-30.19V15.27Z"></path><path class="cls-4" d="M1011.86,104.51c-.35-1.34-.71-2.78-1.05-4.3-.35-1.52-1.14-3.13-2.37-4.83-1.23-1.69-2.63-3.39-4.22-5.09-1.58-1.7-3.74-3.42-6.49-5.18s-5.82-3.36-9.22-4.83c-3.39-1.46-7.57-2.87-12.54-4.21-4.98-1.34-10.44-2.49-16.41-3.42-1.99-.23-3.16-1.23-3.51-2.98-.47-2.81,1.52-4.85,5.97-6.14,1.17-.35,2.51-.59,4.03-.7,5.97-.35,10.27-.5,12.9-.44s6.85,.35,12.64,.88c5.79,.53,10.5,.85,14.13,.97,.12-.23,.23-.67,.35-1.32s.2-1.81,.26-3.51c.06-1.7-.09-3.34-.44-4.91-.35-1.58-1.08-3.34-2.2-5.27s-2.63-3.57-4.56-4.91c-1.92-1.34-4.62-2.52-8.08-3.51-3.45-1-7.51-1.49-12.19-1.49-17.55,0-30.48,2.14-38.78,6.41-8.32,4.27-12.47,11.38-12.47,21.32v.7c.12,4.8,.91,8.95,2.37,12.46s3.28,6.23,5.44,8.16c2.16,1.93,5,3.6,8.51,5,3.51,1.4,6.78,2.4,9.83,2.98,3.05,.59,6.88,1.34,11.5,2.28,4.61,.94,8.45,1.87,11.49,2.8,1.99,.47,3.74,1.14,5.27,2.02,1.52,.88,2.6,1.84,3.25,2.9,.64,1.05,.81,2.1,.52,3.16s-1.49,2.05-3.6,2.98c-2.11,.94-4.97,1.58-8.6,1.93-5.97,.35-10.27,.5-12.9,.44s-6.85-.35-12.64-.88c-5.79-.53-10.5-.85-14.13-.97-.12,.24-.23,.67-.35,1.32s-.2,1.82-.26,3.51c-.06,1.7,.09,3.34,.44,4.91,.36,1.58,1.08,3.34,2.2,5.27,1.11,1.93,2.63,3.57,4.56,4.91,1.93,1.35,4.62,2.52,8.08,3.51,3.44,1,7.51,1.49,12.19,1.49,17.55,0,30.47-2.13,38.79-6.41,8.3-4.27,12.46-11.38,12.46-21.32v-.35c-.12-.47-.09-1.14,.09-2.02,.17-.88,.09-1.99-.26-3.33Z"></path><path class="cls-4" d="M89.89,16.18c1.49-1.29,2.3-2.94,2.3-4.64s-.73-3.2-2.03-4.35c-1.61-1.4-3.51-2.12-5.6-2.12-.53,0-1.09,.16-1.64,.25v15.46c2.62-1.43,5.12-2.99,6.96-4.6Z"></path><path class="cls-4" d="M169.89,60.11c-1.11-3.68-2.72-6.96-4.83-9.83-2.11-2.87-5.5-5.41-10.18-7.64-4.68-2.22-10.3-3.34-16.85-3.34-13.46,0-23.05,1.17-28.78,3.51V19.31c0-5.73-.94-9.86-2.81-12.37-1.87-2.51-4.01-3.78-6.41-3.78s-5.32-.15-8.77-.44c-3.45-.29-6.23-1.2-8.34-2.72V3.5c.55-.08,1.1-.24,1.64-.24,2.55,0,4.84,.87,6.79,2.57,1.7,1.48,2.66,3.56,2.66,5.71-.02,2.23-1.06,4.36-2.94,6.01-2.17,1.89-5.11,3.69-8.15,5.3v114.04c8.54,.46,15.12-.38,19.74-2.54,4.62-2.17,6.82-6.76,6.58-13.78v-54.05c5.73-2.11,11.46-3.16,17.2-3.16,9.24,.24,14.74,2.26,16.5,6.06,1.75,3.8,2.57,14.42,2.46,31.85v19.31c0,13.22,8.77,18.66,26.32,16.32v-63.88c.12-1.29,.12-2.84,0-4.65-.12-1.81-.73-4.56-1.84-8.25Z"></path><path class="cls-4" d="M272.52,56.86c-1.7-2.81-3.68-5.29-5.97-7.46-2.28-2.16-4.8-3.83-7.55-5-2.75-1.17-5.65-2.17-8.69-2.98-3.04-.82-6.17-1.32-9.39-1.49-3.22-.17-6.44-.32-9.65-.44-3.22-.11-6.35-.11-9.39,0h-4.92c-3.39,0-6.35,.47-8.86,1.41-2.52,.94-4.51,2.08-5.97,3.42-1.47,1.34-2.63,2.98-3.51,4.91s-1.47,3.66-1.76,5.17c-.29,1.52-.47,3.13-.53,4.83-.06,1.7-.03,2.84,.09,3.42,.11,.59,.17,1.05,.17,1.41,4.09-1.64,10.44-2.87,19.04-3.69,8.6-.82,16.73-.52,24.39,.88,7.66,1.4,11.5,4.1,11.5,8.08,0,2.8-1.84,4.88-5.53,6.23s-10.62,2.02-20.8,2.02c-5.85,0-10.82,.47-14.92,1.41-4.1,.94-7.81,2.6-11.14,5-3.34,2.4-5.82,5.79-7.46,10.18-1.64,4.39-2.46,9.8-2.46,16.23,0,3.63,.53,6.9,1.58,9.83,1.05,2.93,2.34,5.29,3.86,7.11,1.52,1.81,3.36,3.39,5.53,4.74,2.16,1.34,4.12,2.31,5.88,2.9s3.6,1.03,5.53,1.32c1.93,.29,3.24,.47,3.95,.53,.7,.06,1.23,.09,1.58,.09h24.22c1.99,0,3.71-.06,5.18-.17,1.46-.12,3.54-.44,6.23-.97,2.69-.53,5.06-1.23,7.11-2.1,2.05-.88,4.24-2.25,6.58-4.12,2.34-1.87,4.3-4.04,5.88-6.49,1.58-2.46,2.9-5.64,3.95-9.56,1.05-3.92,1.58-8.28,1.58-13.07v-19.31c0-5.14-.47-9.77-1.4-13.86-.94-4.1-2.25-7.55-3.95-10.35Zm-20.36,43.52c-.06,2.1-.29,4.3-.7,6.58-.41,2.28-.91,3.77-1.49,4.47s-1.61,1.47-3.07,2.28c-1.47,.82-3.04,1.26-4.74,1.32-1.7,.06-4.12,.09-7.28,.09-7.72,0-12.87-.76-15.44-2.28-2.57-1.52-3.86-3.8-3.86-6.85,0-2.57,1.78-4.56,5.35-5.97,3.57-1.4,8.22-2.1,13.95-2.1,3.27,0,6.43-.67,9.47-2.02,3.04-1.34,5-2.43,5.88-3.24s1.55-1.52,2.02-2.11c0,4.45-.03,7.72-.09,9.83Z"></path><path class="cls-4" d="M312.41,3.16c-2.4,0-5.32-.15-8.77-.44-3.45-.29-6.23-1.2-8.34-2.72V136.89c8.54,.46,15.12-.38,19.74-2.54,4.62-2.17,6.82-6.76,6.58-13.78V19.31c0-5.73-.94-9.86-2.81-12.37-1.87-2.51-4.01-3.78-6.41-3.78Z"></path><path class="cls-8" d="M10.77,75.57c6.45,6.21,12.92,12.4,19.37,18.62l.45-2.98,4.39-3.37c-.55-6.22-1.18-13.9-1.54-20.8l-22.67,8.53Z"></path><path class="cls-8" d="M37.28,87.84l4.4,3.37,.26,1.7,17.67-18.04-20.78-7.83c-.37,6.9-.99,14.59-1.55,20.8Z"></path><path class="cls-8" d="M69.71,26.78s-.07-.09-.11-.13c-.23-.22-.5-.38-.73-.6-.62-4.79,.78-9.97,4.07-14.22,2.79-3.6,6.49-5.91,10-6.5v-1.82c-4.07,.57-8.24,3.1-11.43,7.22-3.21,4.16-4.82,8.98-4.68,13.7-10.3-7.8-24.1-7.89-32.08,.41l-2.86,2.98L1.39,58.91c-2.13,2.17-1.75,5.97,.77,8.38,1.74,1.67,3.47,3.35,5.22,5.02l25.73-17.09c-.03-11.71,.94-19.17,3.04-19.16,2.1,0,3.06,7.46,3.03,19.17l24.06,15.96,6.7-6.83,2.87-2.98c8.28-8.6,7.27-23.1-1.81-33.15,2.76-1.06,7.47-3.01,11.96-5.38v-2.07c-5,2.73-10.53,4.96-13.22,6Zm-7.62,12.77c-2.6,.46-5.06-1.26-5.52-3.84-.46-2.59,1.26-5.06,3.84-5.51,2.59-.46,5.05,1.26,5.51,3.84,.48,2.59-1.26,5.06-3.83,5.51Z"></path><path class="cls-4" d="M437.97,77.31c-.24-2.75-.65-5.15-1.23-7.2-.59-2.05-1.43-4.48-2.55-7.28-1.11-2.81-2.49-5.24-4.12-7.29-1.64-2.05-3.72-4.12-6.23-6.23-2.52-2.11-5.38-3.86-8.6-5.27-3.22-1.4-7.05-2.51-11.49-3.34-4.45-.82-9.3-1.23-14.57-1.23-7.49,0-14.16,.91-20.01,2.72-5.85,1.81-10.5,4.07-13.95,6.75-3.45,2.69-6.35,5.91-8.69,9.66-2.34,3.74-3.98,7.17-4.92,10.27-.94,3.1-1.61,6.35-2.02,9.74-.41,3.39-.59,5.68-.52,6.85,.06,1.17,.15,2.1,.26,2.8,.35,4.56,.79,8.52,1.32,11.85,.53,3.34,1.32,6.82,2.37,10.44,1.05,3.63,2.4,6.67,4.04,9.12s3.77,4.85,6.41,7.2c2.63,2.35,5.7,4.19,9.21,5.53,3.51,1.35,7.78,2.43,12.81,3.25,5.03,.82,10.76,1.23,17.2,1.23s11.79-.7,16.76-2.11c4.97-1.4,9.01-3.13,12.11-5.17,3.1-2.05,5.79-4.59,8.07-7.64s3.95-5.85,5-8.42c1.05-2.57,1.87-5.5,2.46-8.78,.58-3.27,.94-5.67,1.05-7.2,.12-1.52,.18-3.22,.18-5.09,0-.23,.03-1.43,.09-3.6,.06-2.16,.06-3.95,0-5.35-.06-1.4-.21-3.48-.44-6.23Zm-24.92,12.81v1.85c0,1.4-.06,2.69-.17,3.86-.12,1.17-.59,2.93-1.4,5.27-.82,2.34-1.93,4.33-3.33,5.97-1.4,1.64-3.57,3.1-6.49,4.39-2.93,1.29-6.44,1.93-10.53,1.93-5.26,0-9.59-.53-12.99-1.58-3.39-1.05-5.94-2.75-7.64-5.09-1.7-2.34-2.87-4.7-3.51-7.11-.64-2.39-1.14-5.64-1.49-9.74v-1.4c-.12-2.34-.15-4.27-.09-5.79,.06-1.52,.5-3.66,1.32-6.41,.82-2.75,1.99-4.97,3.51-6.67s3.92-3.19,7.2-4.48c3.28-1.29,7.25-1.93,11.94-1.93,2.57,0,4.94,.24,7.11,.7,2.16,.47,4.01,1.08,5.53,1.84,1.52,.76,2.9,1.73,4.12,2.9,1.23,1.17,2.22,2.31,2.98,3.42,.76,1.11,1.4,2.43,1.93,3.95,.53,1.52,.94,2.84,1.23,3.95,.29,1.12,.5,2.43,.62,3.95,.11,1.52,.17,2.66,.17,3.42v2.8Z"></path><text class="cls-9" transform="translate(747.35 172.3)"><tspan class="cls-5" x="0" y="0">he</tspan><tspan class="cls-3" x="51.31" y="0">r</tspan><tspan class="cls-5" x="67.7" y="0">e </tspan><tspan class="cls-6" x="110.35" y="0">f</tspan><tspan class="cls-1" x="126.74" y="0">or </tspan><tspan class="cls-7" x="188.07" y="0">y</tspan><tspan class="cls-2" x="212.79" y="0">ou</tspan></text></svg>