<?xml version="1.0" encoding="UTF-8"?>
<svg id="Layer_1" data-name="Layer 1" xmlns="http://www.w3.org/2000/svg" viewBox="0 0 1082.66 663.99">
  <defs>
    <style>
      .cls-1 {
        fill: #1b1717;
      }

      .cls-1, .cls-2 {
        stroke-width: 0px;
      }

      .cls-2 {
        fill: #623b96;
      }
    </style>
  </defs>
  <path class="cls-1" d="m112.81,379.08c1.3-1.13,2.01-2.57,2.01-4.05s-.64-2.79-1.77-3.79c-1.4-1.23-3.06-1.85-4.88-1.85-.47,0-.95.14-1.43.22v13.49c2.29-1.25,4.46-2.61,6.07-4.01Z"/>
  <path class="cls-1" d="m182.61,417.41c-.97-3.21-2.37-6.07-4.21-8.57-1.84-2.5-4.8-4.72-8.88-6.66-4.09-1.94-8.98-2.91-14.7-2.91-11.74,0-20.11,1.02-25.11,3.06v-20.52c0-5-.82-8.6-2.45-10.8-1.63-2.19-3.5-3.29-5.59-3.29s-4.64-.13-7.65-.38c-3.01-.25-5.44-1.05-7.27-2.38v3.05c.48-.07.96-.21,1.43-.21,2.22,0,4.22.76,5.92,2.25,1.48,1.29,2.32,3.11,2.32,4.98-.02,1.95-.92,3.81-2.56,5.24-1.89,1.65-4.46,3.22-7.11,4.63v99.49c7.45.4,13.19-.33,17.22-2.22,4.03-1.89,5.95-5.9,5.74-12.02v-47.16c5-1.84,10-2.76,15.01-2.76,8.06.21,12.86,1.97,14.39,5.29,1.53,3.32,2.24,12.58,2.14,27.79v16.85c0,11.53,7.65,16.28,22.97,14.24v-55.73c.1-1.12.1-2.48,0-4.06-.1-1.58-.64-3.98-1.61-7.2Z"/>
  <path class="cls-2" d="m43.78,430.9c5.63,5.42,11.27,10.82,16.9,16.25l.39-2.6,3.83-2.94c-.48-5.42-1.03-12.12-1.35-18.15l-19.78,7.44Z"/>
  <path class="cls-2" d="m66.91,441.6l3.84,2.94.23,1.48,15.42-15.74-18.13-6.83c-.32,6.02-.86,12.73-1.36,18.15Z"/>
  <path class="cls-2" d="m95.21,388.33s-.06-.08-.1-.11c-.2-.19-.44-.33-.64-.52-.54-4.18.68-8.7,3.55-12.41,2.43-3.14,5.66-5.16,8.72-5.67v-1.59c-3.55.5-7.19,2.71-9.97,6.3-2.8,3.63-4.2,7.84-4.08,11.95-8.99-6.8-21.03-6.88-27.98.36l-2.5,2.6-26.61,27.14c-1.86,1.89-1.53,5.21.67,7.31,1.52,1.46,3.03,2.92,4.55,4.38l22.45-14.91c-.02-10.22.82-16.73,2.65-16.72,1.83,0,2.67,6.51,2.64,16.72l20.99,13.92,5.84-5.96,2.5-2.6c7.22-7.5,6.34-20.15-1.58-28.92,2.41-.93,6.51-2.62,10.43-4.7v-1.81c-4.37,2.38-9.18,4.33-11.53,5.23Zm-6.65,11.14c-2.27.4-4.42-1.1-4.81-3.35-.4-2.26,1.1-4.42,3.35-4.81,2.26-.4,4.41,1.1,4.81,3.35.42,2.26-1.1,4.41-3.35,4.81Z"/>
  <path class="cls-1" d="m204.52,420.96c0-.31-.05-.72-.15-1.23-.1-.51-.13-1.51-.08-3,.05-1.49.2-2.9.46-4.23.26-1.33.77-2.85,1.54-4.54.77-1.69,1.79-3.13,3.08-4.31,1.28-1.18,3.03-2.18,5.24-3,2.21-.82,4.8-1.23,7.78-1.23h4.31c2.67-.1,5.41-.1,8.24,0,2.82.1,5.64.23,8.47.39,2.82.15,5.57.59,8.24,1.31,2.67.72,5.21,1.59,7.62,2.62,2.41,1.03,4.62,2.49,6.62,4.39,2,1.9,3.75,4.08,5.24,6.54,1.49,2.46,2.64,5.49,3.46,9.08.82,3.59,1.23,7.65,1.23,12.16v16.94c0,4.21-.46,8.03-1.39,11.47-.92,3.44-2.08,6.24-3.46,8.39-1.39,2.16-3.11,4.06-5.16,5.7-2.05,1.64-3.98,2.85-5.77,3.62-1.8.77-3.88,1.39-6.24,1.85-2.36.46-4.18.75-5.47.85-1.28.1-2.8.15-4.54.15h-21.25c-.31,0-.77-.02-1.39-.08-.62-.05-1.77-.2-3.46-.46-1.69-.26-3.31-.64-4.85-1.15-1.54-.51-3.26-1.36-5.16-2.54-1.9-1.18-3.52-2.56-4.85-4.16-1.34-1.59-2.46-3.67-3.39-6.24-.92-2.56-1.39-5.44-1.39-8.62,0-5.64.72-10.39,2.16-14.24,1.44-3.85,3.62-6.83,6.54-8.93,2.93-2.1,6.18-3.57,9.78-4.39,3.59-.82,7.95-1.23,13.09-1.23,8.93,0,15.01-.59,18.25-1.77,3.23-1.18,4.85-3,4.85-5.47,0-3.49-3.36-5.85-10.09-7.08-6.72-1.23-13.86-1.49-21.4-.77-7.54.72-13.11,1.8-16.71,3.23Zm48.81,23.25c-.41.52-1,1.13-1.77,1.85-.77.72-2.49,1.67-5.16,2.85-2.67,1.18-5.44,1.77-8.31,1.77-5.03,0-9.11.62-12.24,1.85-3.13,1.23-4.7,2.98-4.7,5.24,0,2.67,1.13,4.67,3.39,6,2.26,1.34,6.77,2,13.55,2,2.77,0,4.9-.02,6.39-.08,1.49-.05,2.87-.44,4.16-1.15,1.28-.72,2.18-1.39,2.69-2,.51-.62.95-1.92,1.31-3.93.36-2,.56-3.93.62-5.77.05-1.85.08-4.72.08-8.62Z"/>
  <path class="cls-1" d="m313.32,470.54c.2,6.16-1.72,10.19-5.77,12.09-4.06,1.9-9.83,2.64-17.32,2.23v-120.1c1.85,1.34,4.28,2.13,7.31,2.39,3.03.26,5.59.39,7.7.39s3.98,1.1,5.62,3.31c1.64,2.21,2.46,5.83,2.46,10.86v88.84Z"/>
  <path class="cls-1" d="m327.98,442.2c-.1-.62-.18-1.44-.23-2.46-.05-1.02.1-3.03.46-6,.36-2.98.95-5.82,1.77-8.55.82-2.72,2.26-5.72,4.31-9.01,2.05-3.28,4.59-6.11,7.62-8.47,3.03-2.36,7.11-4.34,12.24-5.93,5.13-1.59,10.98-2.39,17.55-2.39,4.62,0,8.88.36,12.78,1.08,3.9.72,7.26,1.69,10.09,2.93,2.82,1.23,5.34,2.77,7.54,4.62,2.21,1.85,4.03,3.67,5.47,5.47,1.44,1.8,2.64,3.93,3.62,6.39.97,2.46,1.72,4.6,2.23,6.39.51,1.8.87,3.9,1.08,6.31.2,2.41.33,4.23.38,5.47.05,1.23.05,2.8,0,4.7-.05,1.9-.08,2.95-.08,3.16,0,1.64-.05,3.13-.15,4.47-.1,1.34-.41,3.44-.92,6.31-.51,2.87-1.23,5.44-2.16,7.7-.92,2.26-2.39,4.72-4.39,7.39-2,2.67-4.36,4.9-7.08,6.7-2.72,1.8-6.26,3.31-10.62,4.54-4.36,1.23-9.27,1.85-14.7,1.85s-10.68-.36-15.09-1.08c-4.41-.72-8.16-1.67-11.24-2.85-3.08-1.18-5.77-2.8-8.08-4.85-2.31-2.05-4.18-4.16-5.62-6.31-1.44-2.16-2.62-4.82-3.54-8.01-.92-3.18-1.62-6.24-2.08-9.16-.46-2.93-.85-6.39-1.15-10.39Zm22.94,1.39c.31,3.59.74,6.44,1.31,8.55.56,2.11,1.59,4.18,3.08,6.24,1.49,2.05,3.72,3.54,6.7,4.47,2.98.92,6.77,1.39,11.39,1.39,3.59,0,6.67-.56,9.24-1.69,2.56-1.13,4.47-2.41,5.7-3.85,1.23-1.44,2.21-3.18,2.93-5.24.72-2.05,1.13-3.59,1.23-4.62.1-1.02.15-2.16.15-3.39v-4.08c0-.67-.05-1.67-.15-3-.1-1.33-.28-2.49-.54-3.46-.26-.97-.62-2.13-1.08-3.46-.46-1.33-1.03-2.49-1.69-3.46-.67-.97-1.54-1.98-2.62-3-1.08-1.02-2.29-1.87-3.62-2.54-1.34-.67-2.95-1.21-4.85-1.62-1.9-.41-3.98-.62-6.24-.62-4.11,0-7.6.57-10.47,1.69-2.88,1.13-4.98,2.44-6.31,3.93-1.34,1.49-2.36,3.44-3.08,5.85-.72,2.41-1.1,4.29-1.15,5.62-.05,1.33-.03,3.03.08,5.08v1.23Z"/>
  <path class="cls-1" d="m480.53,402.32c5.03-2.05,13.45-3.08,25.25-3.08,5.75,0,10.67.98,14.78,2.93,4.1,1.95,7.08,4.18,8.93,6.7,1.85,2.52,3.26,5.39,4.23,8.62.97,3.23,1.51,5.65,1.62,7.24.1,1.59.1,2.95,0,4.08v56.05c-15.4,2.05-23.1-2.72-23.1-14.32v-16.94c.1-15.29-.62-24.61-2.16-27.95-1.54-3.33-6.37-5.11-14.47-5.31-5.03,0-10.06.92-15.09,2.77v47.43c.2,6.16-1.72,10.19-5.77,12.09-4.06,1.9-9.83,2.64-17.32,2.23v-120.1c1.85,1.34,4.28,2.13,7.31,2.39,3.03.26,5.59.39,7.7.39s3.98,1.1,5.62,3.31c1.64,2.21,2.46,5.83,2.46,10.86v20.63Z"/>
  <path class="cls-1" d="m550.07,442.2c-.1-.62-.18-1.44-.23-2.46-.05-1.02.1-3.03.46-6,.36-2.98.95-5.82,1.77-8.55.82-2.72,2.26-5.72,4.31-9.01,2.05-3.28,4.59-6.11,7.62-8.47,3.03-2.36,7.11-4.34,12.24-5.93,5.13-1.59,10.98-2.39,17.55-2.39,4.62,0,8.88.36,12.78,1.08,3.9.72,7.26,1.69,10.09,2.93,2.82,1.23,5.34,2.77,7.54,4.62,2.21,1.85,4.03,3.67,5.47,5.47,1.44,1.8,2.64,3.93,3.62,6.39.97,2.46,1.72,4.6,2.23,6.39.51,1.8.87,3.9,1.08,6.31.2,2.41.33,4.23.39,5.47.05,1.23.05,2.8,0,4.7-.05,1.9-.08,2.95-.08,3.16,0,1.64-.05,3.13-.15,4.47-.1,1.34-.41,3.44-.92,6.31-.51,2.87-1.23,5.44-2.16,7.7-.92,2.26-2.39,4.72-4.39,7.39-2,2.67-4.36,4.9-7.08,6.7-2.72,1.8-6.26,3.31-10.62,4.54-4.36,1.23-9.27,1.85-14.7,1.85s-10.68-.36-15.09-1.08c-4.41-.72-8.16-1.67-11.24-2.85-3.08-1.18-5.77-2.8-8.08-4.85-2.31-2.05-4.18-4.16-5.62-6.31-1.44-2.16-2.62-4.82-3.54-8.01-.92-3.18-1.62-6.24-2.08-9.16-.46-2.93-.85-6.39-1.15-10.39Zm22.94,1.39c.31,3.59.74,6.44,1.31,8.55.56,2.11,1.59,4.18,3.08,6.24,1.49,2.05,3.72,3.54,6.7,4.47,2.98.92,6.77,1.39,11.39,1.39,3.59,0,6.67-.56,9.24-1.69,2.56-1.13,4.47-2.41,5.7-3.85,1.23-1.44,2.21-3.18,2.93-5.24.72-2.05,1.13-3.59,1.23-4.62.1-1.02.15-2.16.15-3.39v-4.08c0-.67-.05-1.67-.15-3-.1-1.33-.28-2.49-.54-3.46-.26-.97-.62-2.13-1.08-3.46-.46-1.33-1.03-2.49-1.69-3.46-.67-.97-1.54-1.98-2.62-3-1.08-1.02-2.29-1.87-3.62-2.54-1.34-.67-2.95-1.21-4.85-1.62-1.9-.41-3.98-.62-6.24-.62-4.11,0-7.6.57-10.47,1.69-2.88,1.13-4.98,2.44-6.31,3.93-1.34,1.49-2.36,3.44-3.08,5.85-.72,2.41-1.1,4.29-1.15,5.62-.05,1.33-.03,3.03.08,5.08v1.23Z"/>
  <path class="cls-1" d="m674.53,470.54c.2,6.16-1.72,10.19-5.77,12.09-4.06,1.9-9.83,2.64-17.32,2.23v-120.1c1.85,1.34,4.28,2.13,7.31,2.39,3.03.26,5.59.39,7.7.39s3.98,1.1,5.62,3.31c1.64,2.21,2.46,5.83,2.46,10.86v88.84Z"/>
  <g>
    <path class="cls-2" d="m692.49,390.62c-2.36-2.46-3.54-5.39-3.54-8.78s1.21-6.29,3.62-8.7,5.31-3.62,8.7-3.62,6.29,1.21,8.7,3.62c2.41,2.41,3.62,5.31,3.62,8.7s-1.21,6.29-3.62,8.7c-2.41,2.41-5.31,3.62-8.7,3.62s-6.31-1.18-8.78-3.54Z"/>
    <path class="cls-1" d="m712.66,414.8c0-5.03-.82-8.65-2.46-10.86-1.64-2.21-3.52-3.31-5.62-3.31s-4.67-.13-7.7-.39c-3.03-.26-5.47-1.05-7.31-2.39v87c7.49.41,13.27-.33,17.32-2.23,4.05-1.9,5.98-5.93,5.77-12.09v-55.74Z"/>
  </g>
  <path class="cls-1" d="m786.66,365.06c1.54,1.13,3.46,1.85,5.77,2.16,2.31.31,4.41.46,6.31.46s3.72.28,5.47.85c1.74.57,3.1,1.92,4.08,4.08.97,2.16,1.46,5.29,1.46,9.39v90.85c-.1.1-.59.69-1.46,1.77-.87,1.08-1.67,1.95-2.39,2.62-.72.67-2.05,1.54-4,2.62-1.95,1.08-4.11,1.92-6.47,2.54-2.36.62-5.54,1.18-9.55,1.69-4,.51-8.52.77-13.55.77-15.81,0-27.15-3.41-34.03-10.24-6.88-6.83-10.32-18.19-10.32-34.11,0-6.16.82-11.68,2.46-16.55,1.64-4.87,3.82-8.85,6.54-11.93,2.72-3.08,5.93-5.64,9.62-7.7,3.7-2.05,7.44-3.49,11.24-4.31,3.8-.82,7.75-1.23,11.86-1.23,7.9,0,13.55,1.23,16.94,3.7v-37.42Zm0,76.99v-21.86c-1.33-.41-2.8-.77-4.39-1.08-1.59-.31-3.57-.54-5.93-.69-2.36-.15-4.59-.13-6.7.08-2.11.21-4.29.82-6.54,1.85-2.26,1.03-4.21,2.39-5.85,4.08-1.64,1.69-2.98,4.06-4,7.08-1.03,3.03-1.54,6.6-1.54,10.7s.62,7.29,1.85,10.16c1.23,2.87,2.74,5.08,4.54,6.62,1.79,1.54,4,2.69,6.62,3.46,2.62.77,4.98,1.23,7.08,1.39,2.1.15,4.39.1,6.85-.15,2.46-.25,4.18-.49,5.16-.69.97-.2,1.87-.41,2.69-.62h.15c.1,0,.1-6.78,0-20.33Z"/>
  <path class="cls-1" d="m830.63,420.96c0-.31-.05-.72-.15-1.23-.1-.51-.13-1.51-.08-3,.05-1.49.2-2.9.46-4.23.26-1.33.77-2.85,1.54-4.54.77-1.69,1.79-3.13,3.08-4.31,1.28-1.18,3.03-2.18,5.24-3,2.21-.82,4.8-1.23,7.78-1.23h4.31c2.67-.1,5.41-.1,8.24,0,2.82.1,5.64.23,8.47.39,2.82.15,5.57.59,8.24,1.31,2.67.72,5.21,1.59,7.62,2.62,2.41,1.03,4.62,2.49,6.62,4.39,2,1.9,3.75,4.08,5.24,6.54,1.49,2.46,2.64,5.49,3.46,9.08.82,3.59,1.23,7.65,1.23,12.16v16.94c0,4.21-.46,8.03-1.39,11.47-.92,3.44-2.08,6.24-3.46,8.39-1.39,2.16-3.11,4.06-5.16,5.7-2.05,1.64-3.98,2.85-5.77,3.62-1.8.77-3.88,1.39-6.24,1.85-2.36.46-4.18.75-5.47.85-1.28.1-2.8.15-4.54.15h-21.25c-.31,0-.77-.02-1.39-.08-.62-.05-1.77-.2-3.46-.46-1.69-.26-3.31-.64-4.85-1.15-1.54-.51-3.26-1.36-5.16-2.54-1.9-1.18-3.52-2.56-4.85-4.16-1.34-1.59-2.46-3.67-3.39-6.24-.92-2.56-1.39-5.44-1.39-8.62,0-5.64.72-10.39,2.16-14.24,1.44-3.85,3.62-6.83,6.54-8.93,2.93-2.1,6.18-3.57,9.78-4.39,3.59-.82,7.95-1.23,13.09-1.23,8.93,0,15.01-.59,18.25-1.77,3.23-1.18,4.85-3,4.85-5.47,0-3.49-3.36-5.85-10.09-7.08-6.72-1.23-13.86-1.49-21.4-.77-7.54.72-13.11,1.8-16.71,3.23Zm48.81,23.25c-.41.52-1,1.13-1.77,1.85-.77.72-2.49,1.67-5.16,2.85-2.67,1.18-5.44,1.77-8.31,1.77-5.03,0-9.11.62-12.24,1.85-3.13,1.23-4.7,2.98-4.7,5.24,0,2.67,1.13,4.67,3.39,6,2.26,1.34,6.78,2,13.55,2,2.77,0,4.9-.02,6.39-.08,1.49-.05,2.87-.44,4.16-1.15,1.28-.72,2.18-1.39,2.69-2,.51-.62.95-1.92,1.31-3.93.36-2,.56-3.93.62-5.77.05-1.85.08-4.72.08-8.62Z"/>
  <path class="cls-1" d="m963.9,480.7l-22.12,48.82c-3.9,4.21-8.62,6.31-14.17,6.31-2.46,0-4.6-.64-6.39-1.92-1.8-1.28-3-2.54-3.62-3.77l-.92-2,25.81-53.44c-.21-.51-.41-1.08-.62-1.69-3.7-9.03-8.68-19.68-14.94-31.95-6.26-12.27-10.75-20.86-13.47-25.79-2.72-4.93-4.9-8.83-6.54-11.7,3.28-1.02,5.75-1.74,7.39-2.16,1.64-.41,3.67-.59,6.08-.54,2.41.05,4.67.38,6.78,1,2.1.62,4.23,1.87,6.39,3.77,2.16,1.9,3.9,4.44,5.24,7.62,1.44,4.11,3.46,9.08,6.08,14.94,2.62,5.85,4.9,10.73,6.85,14.63,1.95,3.9,2.93,5.9,2.93,6.01,6.88-17.35,11.65-29.87,14.32-37.57,1.33-3.08,3.05-5.57,5.16-7.47,2.1-1.9,4.18-3.13,6.24-3.7,2.05-.56,4.23-.82,6.54-.77,2.31.05,4.28.31,5.93.77,1.64.46,3.21.95,4.7,1.46,1.49.51,2.28.77,2.39.77-8.93,17.96-17.55,37.06-25.87,57.28l-10.16,21.09Z"/>
  <path class="cls-1" d="m1076.96,420.19c-3.18-.1-7.31-.38-12.4-.85-5.08-.46-8.78-.72-11.09-.77-2.31-.05-6.08.08-11.32.38-1.33.1-2.52.31-3.54.62-3.9,1.13-5.65,2.93-5.24,5.39.31,1.54,1.33,2.41,3.08,2.62,5.24.82,10.03,1.82,14.4,3,4.36,1.18,8.03,2.41,11.01,3.7,2.98,1.28,5.67,2.69,8.08,4.23,2.41,1.54,4.31,3.06,5.7,4.54,1.39,1.49,2.62,2.98,3.7,4.47,1.08,1.49,1.77,2.9,2.08,4.23.31,1.34.62,2.59.92,3.77.31,1.18.38,2.16.23,2.93-.15.77-.18,1.36-.08,1.77v.31c0,8.73-3.65,14.96-10.93,18.71-7.29,3.75-18.63,5.62-34.03,5.62-4.11,0-7.67-.44-10.7-1.31-3.03-.87-5.39-1.9-7.08-3.08-1.69-1.18-3.03-2.62-4-4.31-.98-1.69-1.62-3.23-1.93-4.62-.31-1.39-.44-2.82-.38-4.31.05-1.49.13-2.51.23-3.08.1-.56.2-.95.31-1.15,3.18.1,7.31.39,12.4.85,5.08.46,8.78.72,11.09.77,2.31.05,6.08-.08,11.32-.39,3.18-.31,5.7-.87,7.54-1.69,1.85-.82,2.9-1.69,3.16-2.62.25-.92.1-1.85-.46-2.77-.57-.92-1.52-1.77-2.85-2.54-1.34-.77-2.87-1.36-4.62-1.77-2.67-.82-6.03-1.64-10.09-2.46-4.06-.82-7.42-1.49-10.09-2-2.67-.51-5.54-1.39-8.62-2.62-3.08-1.23-5.57-2.69-7.47-4.39-1.9-1.69-3.49-4.08-4.77-7.16-1.28-3.08-1.98-6.72-2.08-10.93v-.62c0-8.72,3.64-14.96,10.93-18.71,7.29-3.75,18.63-5.62,34.03-5.62,4.1,0,7.67.44,10.7,1.31,3.03.87,5.39,1.9,7.08,3.08,1.69,1.18,3.03,2.62,4,4.31.97,1.69,1.62,3.23,1.92,4.62.31,1.39.44,2.82.38,4.31-.05,1.49-.13,2.52-.23,3.08-.1.57-.21.95-.31,1.15Z"/>
</svg>