<svg xmlns="http://www.w3.org/2000/svg" version="1.1" xmlns:xlink="http://www.w3.org/1999/xlink" width="512" height="512" x="0" y="0" viewBox="0 0 64 64" style="enable-background:new 0 0 512 512" xml:space="preserve" class=""><g><path d="M19 31H7a1 1 0 0 0-1 1v22a1 1 0 0 0 1 1h12a1 1 0 0 0 1-1v-2l17.08 2.84A7.09 7.09 0 0 0 43 53.28l13.8-11.92a3.56 3.56 0 0 0 1-4 3.8 3.8 0 0 0-6-1.46l-7.12 5.45A4 4 0 0 0 41 39H29a5 5 0 0 0-5-5h-4v-2a1 1 0 0 0-1-1zm-1 22H8V33h10zm6-17a3 3 0 0 1 3 3v1a1 1 0 0 0 1 1h13a2 2 0 0 1 0 4H27v2h14a4 4 0 0 0 3.93-3.34L53 37.45a1.82 1.82 0 0 1 1.2-.45 1.72 1.72 0 0 1 1.65 1.1 1.56 1.56 0 0 1-.4 1.76L41.7 51.76a5.08 5.08 0 0 1-4.28 1.15L20 50V36z" fill="#4905a0" opacity="1" data-original="#000000" class=""></path><path d="M38 37a14 14 0 1 0-14-14 14 14 0 0 0 14 14zm0-26a12 12 0 1 1-12 12 12 12 0 0 1 12-12z" fill="#4905a0" opacity="1" data-original="#000000" class=""></path><path d="m30.927 28.651 12.726-12.726 1.414 1.414-12.726 12.726zM34 22a3 3 0 1 0-3-3 3 3 0 0 0 3 3zm0-4a1 1 0 1 1-1 1 1 1 0 0 1 1-1zM42 24a3 3 0 1 0 3 3 3 3 0 0 0-3-3zm0 4a1 1 0 1 1 1-1 1 1 0 0 1-1 1z" fill="#4905a0" opacity="1" data-original="#000000" class=""></path></g></svg>